<!-- icon666.com - MILLIONS vector ICONS FREE --><svg height='25px' width='25px' enable-background="new 0 0 32 32" viewBox="0 0 32 32" xmlns="http://www.w3.org/2000/svg"><g id="Cart"><g><path d="m26.064 18.807h-13.2l-.167-1.027h13.977c.476 0 .886-.336.98-.802l2.108-10.459c.059-.293-.017-.598-.206-.83s-.473-.367-.772-.368l-18.117-.057-.339-2.089c-.079-.484-.497-.84-.987-.84h-4.449c-1.383 0-2.509 1.122-2.509 2.501 0 1.378 1.125 2.5 2.509 2.5h.746l2.511 15.646c.078.485.496.842.987.842h16.929c1.369 0 2.482-1.126 2.482-2.51 0-1.382-1.114-2.507-2.483-2.507zm-14.218-6.278 3.363-.002.31 3.252h-3.146zm9.445-.005-.318 3.255h-3.445l-.31-3.253zm-4.264-1.998-.309-3.243 5.082.016-.315 3.225zm5.955 5.253.318-3.256 3.213-.002-.657 3.258zm3.935-5.258-3.421.001.313-3.218 3.754.012zm-12.209-3.244.31 3.25-3.497.002-.53-3.263zm11.356 14.547h-16.076l-2.51-15.646c-.078-.486-.497-.842-.988-.842h-1.598c-.281 0-.509-.224-.509-.5s.228-.501.509-.501h3.598l2.536 15.632c.079.484.497.84.987.84h14.051c.266 0 .482.228.482.508.001.281-.215.509-.482.509z" fill="#000000" style="fill: rgb(122, 122, 122);"></path><path d="m12.88 24.144c-1.522 0-2.761 1.238-2.761 2.761s1.238 2.761 2.761 2.761 2.762-1.238 2.762-2.761-1.239-2.761-2.762-2.761zm0 3.521c-.419 0-.761-.341-.761-.761s.341-.761.761-.761.762.341.762.761-.342.761-.762.761z" fill="#000000" style="fill: rgb(122, 122, 122);"></path><path d="m22.491 24.144c-1.523 0-2.762 1.238-2.762 2.761s1.239 2.761 2.762 2.761c1.522 0 2.761-1.238 2.761-2.761s-1.238-2.761-2.761-2.761zm0 3.521c-.42 0-.762-.341-.762-.761s.342-.761.762-.761c.419 0 .761.341.761.761s-.341.761-.761.761z" fill="#000000" style="fill: rgb(122, 122, 122);"></path></g></g></svg>