<!-- icon666.com - MILLIONS vector ICONS FREE --><svg height='40px' width='40px' viewBox="0 0 464 464" xmlns="http://www.w3.org/2000/svg"><path d="m256 232c0 13.253906-10.746094 24-24 24s-24-10.746094-24-24 10.746094-24 24-24 24 10.746094 24 24zm0 0" fill="#000000" style="fill: rgb(30, 153, 38);"></path><path d="m248 136c0-27.941406-7.164062-50.59375-16-50.59375s-16 22.652344-16 50.59375 7.164062 50.59375 16 50.59375 16-22.652344 16-50.59375zm0 0" fill="#000000" style="fill: rgb(30, 153, 38);"></path><path d="m335.660156 128.34375c-6.25-6.25-27.335937 4.703125-47.09375 24.464844-19.761718 19.761718-30.714844 40.84375-24.464844 47.09375 6.246094 6.246094 27.332032-4.707032 47.089844-24.46875 19.761719-19.757813 30.714844-40.84375 24.46875-47.089844zm0 0" fill="#000000" style="fill: rgb(30, 153, 38);"></path><path d="m175.433594 152.804688c-19.761719-19.761719-40.847656-30.714844-47.09375-24.46875-6.25 6.25 4.703125 27.335937 24.464844 47.09375 19.761718 19.761718 40.84375 30.714843 47.09375 24.464843 6.246093-6.246093-4.707032-27.332031-24.464844-47.089843zm0 0" fill="#000000" style="fill: rgb(30, 153, 38);"></path><path d="m186.59375 232c0-8.835938-22.652344-16-50.59375-16s-50.59375 7.164062-50.59375 16 22.652344 16 50.59375 16 50.59375-7.164062 50.59375-16zm0 0" fill="#000000" style="fill: rgb(30, 153, 38);"></path><path d="m199.894531 264.097656c-6.25-6.246094-27.335937 4.707032-47.09375 24.46875-19.761719 19.757813-30.714843 40.84375-24.464843 47.089844 6.246093 6.25 27.332031-4.703125 47.089843-24.464844 19.761719-19.761718 30.714844-40.84375 24.46875-47.09375zm0 0" fill="#000000" style="fill: rgb(30, 153, 38);"></path><path d="m248 328c0-27.941406-7.164062-50.59375-16-50.59375s-16 22.652344-16 50.59375 7.164062 50.59375 16 50.59375 16-22.652344 16-50.59375zm0 0" fill="#000000" style="fill: rgb(30, 153, 38);"></path><path d="m398.398438 254.921875.945312-6.921875h24.65625v-32h-24.65625l-.945312-6.921875c-.917969-6.796875-2.214844-13.398437-3.839844-19.613281l-1.757813-6.753906 22.710938-9.40625-12.238281-29.5625-22.761719 9.425781-3.519531-6.007813c-3.390626-5.785156-7.128907-11.375-11.113282-16.625l-4.207031-5.558594 17.417969-17.425781-22.625-22.621093-17.425782 17.414062-5.558593-4.207031c-5.25-3.984375-10.839844-7.722657-16.625-11.113281l-6.007813-3.519532 9.425782-22.761718-29.5625-12.238282-9.421876 22.695313-6.753906-1.757813c-6.214844-1.625-12.824218-2.921875-19.613281-3.839844l-6.921875-.945312v-24.65625h-32v24.65625l-6.921875.945312c-6.796875.917969-13.398437 2.214844-19.613281 3.839844l-6.753906 1.757813-9.40625-22.710938-29.5625 12.238281 9.425781 22.761719-6.007813 3.519531c-5.785156 3.390626-11.375 7.128907-16.625 11.113282l-5.558594 4.207031-17.425781-17.417969-22.621093 22.625 17.414062 17.425782-4.207031 5.558593c-3.984375 5.25-7.722657 10.839844-11.113281 16.625l-3.519532 6.007813-22.761718-9.425782-12.238282 29.5625 22.710938 9.40625-1.757813 6.753907c-1.625 6.214843-2.921875 12.824219-3.839843 19.613281l-.960938 6.9375h-24.65625v32h24.65625l.945312 6.921875c.917969 6.796875 2.214844 13.398437 3.839844 19.613281l1.757813 6.753906-22.710938 9.398438 12.238281 29.570312 22.761719-9.425781 3.519531 6.007813c3.390626 5.785156 7.128907 11.375 11.113282 16.625l4.207031 5.558594-17.417969 17.425781 22.625 22.621093 17.425782-17.414062 5.558593 4.207031c5.25 3.984375 10.839844 7.722657 16.625 11.113281l6.007813 3.519532-9.425782 22.761718 29.5625 12.238282 9.40625-22.710938 6.753907 1.757813c6.214843 1.625 12.824219 2.921875 19.613281 3.839843l6.9375.960938v24.65625h32v-24.65625l6.921875-.945312c6.796875-.917969 13.398437-2.214844 19.613281-3.839844l6.753906-1.757813 9.40625 22.710938 29.5625-12.238281-9.425781-22.761719 6.007813-3.519531c5.785156-3.390626 11.375-7.128907 16.625-11.113282l5.558594-4.207031 17.425781 17.417969 22.621093-22.625-17.414062-17.425782 4.207031-5.558593c3.984375-5.25 7.722657-10.839844 11.113281-16.625l3.519532-6.007813 22.761718 9.425782 12.238282-29.570313-22.695313-9.414063 1.757813-6.753906c1.617187-6.214844 2.921875-12.816406 3.839844-19.613281zm-8-11.730469c-17.878907 13.417969-40.039063 20.808594-62.398438 20.808594-9.855469 0-19.65625-1.519531-29.078125-4.28125 8.613281 4.714844 16.613281 10.5625 23.589844 17.539062 15.816406 15.8125 26.257812 36.703126 29.425781 58.832032l2.636719 18.484375-18.484375-2.636719c-22.128906-3.167969-43.019532-13.609375-58.832032-29.425781-6.96875-6.96875-12.824218-14.96875-17.539062-23.582031 2.761719 9.421874 4.28125 19.214843 4.28125 29.070312 0 22.359375-7.390625 44.519531-20.808594 62.40625l-11.191406 14.929688-11.191406-14.9375c-13.417969-17.878907-20.808594-40.039063-20.808594-62.398438 0-9.824219 1.503906-19.59375 4.246094-29-4.710938 8.585938-10.550782 16.558594-17.503906 23.503906-15.8125 15.816406-36.703126 26.257813-58.832032 29.425782l-18.484375 2.636718 2.636719-18.488281c3.167969-22.125 13.609375-43.015625 29.425781-58.832031 6.953125-6.949219 14.917969-12.789063 23.503907-17.503906-9.398438 2.753906-19.167969 4.257812-28.992188 4.257812-22.359375 0-44.519531-7.390625-62.40625-20.808594l-14.929688-11.191406 14.9375-11.191406c17.878907-13.417969 40.039063-20.808594 62.398438-20.808594 9.824219 0 19.59375 1.503906 29 4.246094-8.585938-4.710938-16.558594-10.550782-23.503906-17.503906-15.816406-15.8125-26.257813-36.703126-29.425782-58.832032l-2.636718-18.484375 18.488281 2.636719c22.125 3.167969 43.015625 13.609375 58.832031 29.425781 6.949219 6.953125 12.789063 14.917969 17.503906 23.503907-2.753906-9.398438-4.257812-19.167969-4.257812-28.992188 0-22.359375 7.390625-44.519531 20.808594-62.40625l11.191406-14.929688 11.191406 14.9375c13.417969 17.878907 20.808594 40.039063 20.808594 62.398438 0 9.824219-1.503906 19.59375-4.246094 29 4.710938-8.585938 10.550782-16.558594 17.503906-23.503906 15.8125-15.816406 36.703126-26.257813 58.832032-29.425782l18.484375-2.636718-2.636719 18.488281c-3.167969 22.125-13.609375 43.015625-29.425781 58.832031-6.953125 6.949219-14.917969 12.789063-23.503907 17.503906 9.398438-2.753906 19.167969-4.257812 28.992188-4.257812 22.359375 0 44.519531 7.390625 62.40625 20.808594l14.929688 11.191406zm0 0" fill="#000000" style="fill: rgb(30, 153, 38);"></path><path d="m232 0c-127.921875 0-232 104.078125-232 232s104.078125 232 232 232 232-104.078125 232-232-104.078125-232-232-232zm204.414062 282.03125-24.492187 59.136719-24.785156-10.265625c-1.425781 2.226562-2.890625 4.433594-4.402344 6.585937l18.960937 18.96875-45.246093 45.246094-18.96875-18.960937c-2.160157 1.503906-4.359375 2.976562-6.585938 4.402343l10.265625 24.785157-59.128906 24.496093-10.253906-24.753906c-2.554688.550781-5.152344 1.0625-7.785156 1.519531v26.808594h-64v-26.816406c-2.632813-.464844-5.222657-.96875-7.785157-1.519532l-10.253906 24.75-59.128906-24.492187 10.265625-24.785156c-2.226563-1.425781-4.433594-2.890625-6.585938-4.402344l-18.96875 18.960937-45.246094-45.246093 18.957032-18.96875c-1.503906-2.160157-2.972656-4.359375-4.398438-6.585938l-24.769531 10.273438-24.492187-59.136719 24.75-10.246094c-.550782-2.5625-1.0625-5.152344-1.519532-7.785156h-26.816406v-64h26.816406c.464844-2.632812.96875-5.222656 1.519532-7.785156l-24.75-10.253906 24.492187-59.128907 24.785156 10.265625c1.425781-2.226562 2.890625-4.433594 4.402344-6.585937l-18.960937-18.96875 45.246093-45.246094 18.96875 18.960937c2.160157-1.503906 4.359375-2.976562 6.585938-4.402343l-10.273438-24.777344 59.128907-24.492187 10.253906 24.75c2.554687-.550782 5.152344-1.0625 7.785156-1.519532v-26.816406h64v26.816406c2.632812.464844 5.222656.96875 7.785156 1.519532l10.253906-24.75 59.128907 24.492187-10.265625 24.785156c2.226562 1.425781 4.433594 2.890625 6.585937 4.402344l18.96875-18.960937 45.246094 45.246093-18.960937 18.96875c1.503906 2.160157 2.976562 4.359375 4.402343 6.585938l24.785157-10.265625 24.496093 59.128906-24.753906 10.253906c.550781 2.554688 1.0625 5.152344 1.519531 7.785156h26.808594v64h-26.816406c-.464844 2.632813-.96875 5.222657-1.519532 7.785157zm0 0" fill="#000000" style="fill: rgb(30, 153, 38);"></path><path d="m378.59375 232c0-8.835938-22.652344-16-50.59375-16s-50.59375 7.164062-50.59375 16 22.652344 16 50.59375 16 50.59375-7.164062 50.59375-16zm0 0" fill="#000000" style="fill: rgb(30, 153, 38);"></path><path d="m311.1875 288.570312c-19.761719-19.761718-40.84375-30.714843-47.09375-24.464843-6.246094 6.246093 4.707031 27.332031 24.46875 47.089843 19.757812 19.761719 40.84375 30.714844 47.089844 24.46875 6.25-6.25-4.703125-27.335937-24.464844-47.09375zm0 0" fill="#000000" style="fill: rgb(30, 153, 38);"></path></svg>