<!-- icon666.com - MILLIONS vector ICONS FREE --><svg height='40px' width='40px' version="1.1" id="Capa_1" xmlns="http://www.w3.org/2000/svg" xmlns:xlink="http://www.w3.org/1999/xlink" x="0px" y="0px" viewBox="0 0 512 512" style="enable-background:new 0 0 512 512;" xml:space="preserve"><g><g><g><path d="M256,204.123c-28.603,0-51.882,23.261-51.882,51.873s23.27,51.882,51.882,51.882s51.882-23.261,51.882-51.873 C307.882,227.392,284.612,204.123,256,204.123z M256,275.121c-10.534,0-19.116-8.591-19.116-19.125 c0-10.534,8.573-19.116,19.116-19.116c10.534,0,19.116,8.591,19.116,19.125C275.116,266.539,266.534,275.121,256,275.121z" fill="#000000" style="fill: rgb(30, 153, 38);"></path><path d="M494.579,283.862c-8.901-1.562-17.439,4.233-19.09,13.126C455.894,402.588,363.588,479.239,256,479.239 c-123.092,0-223.235-100.151-223.235-223.243S132.908,32.761,256,32.761c22.607,0,44.435,3.39,65.016,9.667L269.268,176.23 c-3.257,8.44,0.941,17.936,9.381,21.193c1.944,0.754,3.932,1.109,5.902,1.109c6.585,0,12.78-3.985,15.282-10.481l4.32-11.169 l93.417-93.355c4.282,3.521,8.428,7.201,12.436,11.026L309.373,195.097c-6.408,6.39-6.408,16.764-0.009,23.163 c3.204,3.204,7.393,4.801,11.59,4.801c4.189,0,8.378-1.597,11.581-4.792l99.49-99.412c3.446,4.413,6.728,8.958,9.84,13.627 L334.643,239.622h-2.879c-9.052,0-16.392,7.331-16.392,16.383c0,9.052,7.339,16.383,16.392,16.383h163.845 c9.052,0,16.392-7.331,16.392-16.383c0-26.974-4.205-52.98-11.973-77.414c-0.091-0.326-0.202-0.646-0.314-0.966 c-5.678-17.615-13.21-34.403-22.376-50.13c-0.334-0.667-0.717-1.315-1.149-1.941c-8.656-14.556-18.708-28.188-29.98-40.702 c-0.464-0.62-0.959-1.225-1.523-1.789c-0.213-0.213-0.441-0.4-0.662-0.599c-11.274-12.206-23.717-23.311-37.152-33.144 c-0.678-0.585-1.392-1.103-2.135-1.558c-17.245-12.352-36.082-22.613-56.137-30.421c-0.091-0.037-0.175-0.083-0.267-0.119 c-0.114-0.044-0.229-0.072-0.343-0.114C319.426,6.072,288.41,0.004,256,0.004c-141.161,0-256,114.839-256,256 s114.839,255.991,256,255.991c123.376,0,229.234-87.904,251.696-209.035C509.346,294.059,503.48,285.522,494.579,283.862z M333.348,101.39l18.219-47.107c6.452,3.069,12.735,6.435,18.829,10.087L333.348,101.39z M458.527,162.145 c2.515,5.404,4.819,10.924,6.903,16.551l-60.97,60.926h-23.472L458.527,162.145z M450.803,239.622l24.649-24.631 c1.505,8.069,2.589,16.285,3.198,24.631H450.803z" fill="#000000" style="fill: rgb(30, 153, 38);"></path></g></g></g></svg>