<!-- icon666.com - MILLIONS vector ICONS FREE --><svg height='40px' width='40px' version="1.1" id="Capa_1" xmlns="http://www.w3.org/2000/svg" xmlns:xlink="http://www.w3.org/1999/xlink" x="0px" y="0px" viewBox="0 0 329 329" style="enable-background:new 0 0 329 329;" xml:space="preserve"><g><path d="M164.5,0C73.794,0,0,73.794,0,164.5S73.794,329,164.5,329S329,255.206,329,164.5S255.206,0,164.5,0z M220.106,231.361 c-8.206,6.705-19.436,11.077-32.606,12.717v16.603c0,1.657-1.343,3-3,3h-13c-1.657,0-3-1.343-3-3v-15.861H153v15.861 c0,1.657-1.343,3-3,3h-13c-1.657,0-3-1.343-3-3v-15.861h-23.412c-1.657,0-3-1.343-3-3V87.181c0-1.657,1.343-3,3-3H134V70.5 c0-1.657,1.343-3,3-3h13c1.657,0,3,1.343,3,3v13.681h15.5V70.5c0-1.657,1.343-3,3-3h13c1.657,0,3,1.343,3,3v14.605 c26.059,4.06,42.119,21.544,42.119,46.154c0,10.821-3.071,20.473-8.913,28.12c10.268,8.643,15.882,21.207,15.882,35.726 C236.588,210.015,230.889,222.552,220.106,231.361z" fill="#000000" style="fill: rgb(30, 153, 38);"></path><path d="M200.619,131.259c0-4.471,0-18.078-25.611-18.078h-38.42V147.3h51.021C196.482,145.499,200.619,140.395,200.619,131.259z" fill="#000000" style="fill: rgb(30, 153, 38);"></path><path d="M188.407,176.3h-51.819v39.52h38.42c21.619,0,32.58-6.969,32.58-20.715C207.588,184.226,201.313,178.073,188.407,176.3z" fill="#000000" style="fill: rgb(30, 153, 38);"></path></g></svg>