<!-- icon666.com - MILLIONS vector ICONS FREE --><svg height='40px' width='40px' viewBox="0 0 503 503.49531" xmlns="http://www.w3.org/2000/svg"><path d="m440.378906 143.71875c-4.53125.011719-9.046875.511719-13.472656 1.492188-28.898438-35.53125-66.871094-62.582032-109.890625-78.28125-.835937-.265626-1.703125-.398438-2.578125-.398438.070312-1.21875.1875-2.421875.1875-3.652344 0-34.726562-28.152344-62.878906-62.875-62.878906-34.726562 0-62.878906 28.152344-62.878906 62.878906 0 1.191406.117187 2.359375.179687 3.546875-1.105469-.039062-2.210937.128907-3.25.503907-42.96875 15.683593-80.898437 42.683593-109.785156 78.144531-31.070313-6.535157-62.128906 11.136719-72.386719 41.179687-10.257812 30.046875 3.511719 63.023438 32.089844 76.851563 1.667969 50.882812 18.015625 100.199219 47.070312 142.003906-19.636718 28.605469-12.371093 67.710937 16.234376 87.347656 28.605468 19.640625 67.714843 12.371094 87.351562-16.234375 43.015625 9.941406 87.730469 9.941406 130.746094 0 19.929687 28.082032 58.75 34.890625 87.042968 15.265625 28.292969-19.625 35.515626-58.371093 16.195313-86.875 28.777344-41.613281 44.992187-90.625 46.707031-141.195312 26.644532-12.496094 41.042969-41.820313 34.640625-70.546875-6.40625-28.726563-31.894531-49.15625-61.328125-49.152344zm-200.246094-92.457031c-3.523437 3.40625-9.125 3.355469-12.589843-.109375-3.464844-3.464844-3.515625-9.066406-.109375-12.589844l17.964844-17.964844c2.566406-2.570312 6.429687-3.335937 9.785156-1.945312 3.359375 1.386718 5.546875 4.664062 5.546875 8.296875v62.875h8.984375c4.960937 0 8.980468 4.023437 8.980468 8.984375 0 4.960937-4.019531 8.980468-8.980468 8.980468h-35.929688c-4.960937 0-8.984375-4.019531-8.984375-8.980468 0-4.960938 4.023438-8.984375 8.984375-8.984375h8.980469v-41.191407zm-177.015624 164.316406h-8.984376c-9.921874 0-17.964843-8.042969-17.964843-17.964844v-17.964843c0-9.921876 8.042969-17.964844 17.964843-17.964844h26.949219c4.960938 0 8.980469 4.023437 8.980469 8.984375 0 4.960937-4.019531 8.980469-8.980469 8.980469h-26.949219v17.964843h8.984376c14.882812 0 26.945312 12.066407 26.945312 26.949219s-12.0625 26.945312-26.945312 26.945312h-17.964844c-4.960938 0-8.984375-4.019531-8.984375-8.980468 0-4.960938 4.023437-8.984375 8.984375-8.984375h17.964844c4.960937 0 8.980468-4.019531 8.980468-8.980469s-4.019531-8.984375-8.980468-8.984375zm98.804687 242.527344h-8.980469v17.964843c0 4.960938-4.023437 8.980469-8.984375 8.980469-4.960937 0-8.980469-4.019531-8.980469-8.980469v-17.964843h-17.820312c-6.984375.042969-13.359375-3.964844-16.347656-10.277344-3.007813-6.214844-2.128906-13.609375 2.246094-18.953125l24.59375-30.324219c1.984374-2.601562 5.230468-3.917969 8.46875-3.4375 3.238281.484375 5.957031 2.691407 7.09375 5.761719 1.140624 3.070312.515624 6.515625-1.625 8.996094l-24.574219 30.3125h17.964843c0-4.960938 4.019532-8.980469 8.980469-8.980469 4.960938 0 8.984375 4.019531 8.984375 8.980469h8.980469c4.960937 0 8.984375 4.023437 8.984375 8.984375 0 4.960937-4.023438 8.980469-8.984375 8.980469zm233.546875 0c0 14.882812-12.066406 26.945312-26.949219 26.945312h-8.980469c-4.960937 0-8.984374-4.019531-8.984374-8.980469 0-4.960937 4.023437-8.984374 8.984374-8.984374h8.980469c4.960938 0 8.984375-4.019532 8.984375-8.980469 0-4.960938-4.023437-8.984375-8.984375-8.984375-4.960937 0-8.980469-4.019532-8.980469-8.980469s4.019532-8.984375 8.980469-8.984375c4.960938 0 8.984375-4.019531 8.984375-8.980469 0-4.960937-4.023437-8.984375-8.984375-8.984375h-8.980469c-4.960937 0-8.984374-4.019531-8.984374-8.980468 0-4.960938 4.023437-8.984376 8.984374-8.984376h8.980469c10.652344-.046874 20.320313 6.210938 24.640625 15.945313 4.324219 9.730469 2.476563 21.101563-4.699218 28.96875 4.484374 4.910156 6.984374 11.3125 7.007812 17.964844zm12.3125-66.992188c-21.675781-17.433593-52.242188-18.523437-75.109375-2.679687-22.867187 15.847656-32.578125 44.851562-23.867187 71.269531-37.625 7.820313-76.453126 7.820313-114.078126 0 8.734376-26.523437-1.085937-55.628906-24.109374-71.433594-23.019532-15.804687-53.710938-14.515625-75.324219 3.167969-24.433594-36.488281-38.644531-78.851562-41.160157-122.691406 2.972657.460937 5.976563.703125 8.984376.726562 28.570312-.035156 53.527343-19.328125 60.753906-46.972656 7.226562-27.640625-5.089844-56.679688-29.988282-70.695312 26.3125-30.703126 60.082032-54.117188 98.058594-68 .179688-.070313.296875-.214844.476563-.292969 8.71875 25.246093 32.460937 42.214843 59.171875 42.285156 26.710937.074219 50.542968-16.761719 59.398437-41.964844 38.054688 13.941407 71.878907 37.453125 98.203125 68.269531-26.308594 14.777344-38.359375 46.199219-28.6875 74.78125 9.675782 28.585938 38.335938 46.226563 68.210938 41.988282-2.527344 43.664062-16.65625 85.863281-40.933594 122.242187zm50.5625-157.570312c4.960938 0 8.984375 4.023437 8.984375 8.984375 0 4.960937-4.023437 8.980468-8.984375 8.980468h-35.929688c-3.632812 0-6.90625-2.1875-8.296874-5.542968-1.390626-3.355469-.621094-7.21875 1.945312-9.789063 16.367188-16.375 33.300781-33.296875 33.300781-47.542969 0-4.960937-4.023437-8.984374-8.984375-8.984374-4.960937 0-8.980468 4.023437-8.980468 8.984374 0 4.960938-4.023438 8.980469-8.984376 8.980469-4.960937 0-8.980468-4.019531-8.980468-8.980469 0-14.882812 12.0625-26.949218 26.945312-26.949218 14.882813 0 26.949219 12.066406 26.949219 26.949218 0 15.90625-10.546875 30.683594-23.644531 44.910157zm0 0" fill="#000000" style="fill: rgb(30, 153, 38);"></path><path d="m251.75 188.632812c-44.648438 0-80.84375 36.191407-80.84375 80.839844 0 44.648438 36.195312 80.84375 80.84375 80.84375 44.644531 0 80.839844-36.195312 80.839844-80.84375-.050782-44.625-36.214844-80.792968-80.839844-80.839844zm-36.828125 94.789063c2.214844 4.441406.414063 9.839844-4.027344 12.054687-4.4375 2.21875-9.835937.417969-12.054687-4.023437l-8.980469-17.964844c-1.261719-2.527343-1.261719-5.503906 0-8.03125l8.980469-17.964843c2.21875-4.4375 7.617187-6.238282 12.054687-4.023438 4.441407 2.21875 6.242188 7.613281 4.027344 12.054688l-7.027344 13.949218zm53.894531-27.898437-17.964844 35.929687c-2.21875 4.441406-7.617187 6.242187-12.054687 4.023437-4.441406-2.214843-6.242187-7.613281-4.023437-12.054687l17.964843-35.929687c2.214844-4.4375 7.613281-6.238282 12.050781-4.023438 4.441407 2.21875 6.242188 7.613281 4.027344 12.054688zm44.910156 17.964843-8.980468 17.964844c-2.21875 4.441406-7.617188 6.242187-12.054688 4.023437-4.441406-2.214843-6.242187-7.613281-4.023437-12.054687l6.933593-13.949219-7.023437-13.949218c-2.21875-4.441407-.417969-9.835938 4.023437-12.054688 4.4375-2.214844 9.835938-.414062 12.054688 4.023438l8.980469 17.964843c1.292969 2.515625 1.324219 5.488281.089843 8.03125zm0 0" fill="#000000" style="fill: rgb(30, 153, 38);"></path></svg>