<!-- icon666.com - MILLIONS vector ICONS FREE --><svg height='40px' width='40px' id="Layer_1" enable-background="new 0 0 512 512" viewBox="0 0 512 512" xmlns="http://www.w3.org/2000/svg"><circle clip-rule="evenodd" cx="256" cy="256" fill="#66bb6a" fill-rule="evenodd" r="256" style="fill: rgb(27, 147, 33);"></circle><g id="Layer_x0020_1"><g id="_382797744" clip-rule="evenodd" fill="#fffffe" fill-rule="evenodd"><path id="_382798680" d="m154.2 114.3c-22 0-39.9 17.9-39.9 39.9v203.5c0 22 17.9 39.9 39.9 39.9h203.5c22 0 39.9-17.9 39.9-39.9v-203.5c0-22-17.9-39.9-39.9-39.9zm203.6 289.8h-203.6c-25.6 0-46.4-20.8-46.4-46.4v-203.5c0-25.6 20.8-46.4 46.4-46.4h203.5c25.6 0 46.4 20.8 46.4 46.4v203.5c0 25.7-20.7 46.4-46.3 46.4z" fill="#fffffe"></path><path id="_382799232" d="m255.9 363.2c-59.1 0-107.2-48.1-107.2-107.2s48.1-107.2 107.2-107.2c19.3 0 38.1 5.1 54.5 14.9 1.6.9 2 2.9 1.2 4.4-.9 1.5-2.9 2-4.4 1.2-15.5-9.1-33.2-14-51.3-14-55.6 0-100.8 45.2-100.8 100.8s45.2 100.6 100.8 100.6 100.8-45.2 100.8-100.8c0-12.5-2.3-24.8-6.8-36.3-.6-1.6.2-3.5 1.8-4.2 1.6-.6 3.5.2 4.2 1.8 4.8 12.4 7.2 25.3 7.2 38.6-.1 59.3-48.1 107.4-107.2 107.4z" fill="#fffffe"></path><path id="_382798248" d="m333.4 328.5c-1.5 0-2.8-1-3.1-2.5l-4.4-18.6c-1.8-7.9-8.9-17.2-22.7-17.2h-94.8c-13.8 0-20.8 9.3-22.7 17.2l-4.4 18.6c-.4 1.7-2.1 2.8-3.9 2.4-1.7-.4-2.8-2.1-2.4-3.9l4.4-18.6c3.1-13.5 14.5-22.2 28.9-22.2h94.7c14.4 0 25.8 8.7 28.9 22.2l4.4 18.6c.4 1.7-.7 3.5-2.4 3.9 0 .1-.3.1-.5.1z" fill="#fffffe"></path><path id="_382797720" d="m255.9 189.4c-21.2 0-38.4 17.2-38.4 38.4s17.2 38.4 38.4 38.4 38.4-17.2 38.4-38.4c-.2-21.2-17.3-38.4-38.4-38.4zm0 83.1c-24.7 0-44.8-20.1-44.8-44.8s20.1-44.8 44.8-44.8 44.8 20.1 44.8 44.8-20.2 44.8-44.8 44.8z" fill="#fffffe"></path><path id="_382798008" d="m339.6 152.2c-18.1 0-32.8 14.7-32.8 32.8s14.7 32.8 32.8 32.8 32.8-14.7 32.8-32.8c.1-18.1-14.6-32.8-32.8-32.8zm0 72c-21.6 0-39.3-17.6-39.3-39.3s17.6-39.3 39.3-39.3 39.3 17.6 39.3 39.3-17.5 39.3-39.3 39.3z" fill="#fffffe"></path><path id="_382798176" d="m339.6 207.1c-1.8 0-3.2-1.4-3.2-3.2v-37.9c0-1.8 1.4-3.2 3.2-3.2s3.2 1.4 3.2 3.2v37.9c.1 1.9-1.3 3.2-3.2 3.2z" fill="#fffffe"></path><path id="_382797912" d="m358.5 188.2h-37.9c-1.8 0-3.2-1.4-3.2-3.2s1.4-3.2 3.2-3.2h37.9c1.8 0 3.2 1.4 3.2 3.2.2 1.9-1.3 3.2-3.2 3.2z" fill="#fffffe"></path></g></g></svg>