<!-- icon666.com - MILLIONS vector ICONS FREE --><svg height='40px' width='40px' viewBox="0 0 152 152" xmlns="http://www.w3.org/2000/svg" xmlns:xlink="http://www.w3.org/1999/xlink"><linearGradient id="linear-gradient" gradientUnits="userSpaceOnUse" x1="76" x2="76" y2="152"><stop offset="0" stop-color="#09c4f9"></stop><stop offset="1" stop-color="#07b0f6"></stop></linearGradient><g id="Layer_2" data-name="Layer 2"><g id="_11.graduate" data-name="11.graduate"><circle id="background" cx="76" cy="76" fill="url(#linear-gradient)" r="76" style="fill: rgb(54, 137, 31);"></circle><g id="icon" fill="#fff"><path d="m99.25 73.49c-6.93 2.27-13.84 4.6-20.79 6.77a7.28 7.28 0 0 1 -3.82 0c-3.18-.87-6.29-2-9.42-3l-12.63-4.1c.13 1.86-1.3 3.31.16 4.73 2.39 2.31 3 4.94 1.4 7.82-.63 1.15-.42 1.85.6 2.4a41.23 41.23 0 0 0 5.55 2.8c8.63 3 17.5 3 26.41 1.64 4.19-.66 8.29-1.8 11.65-4.55 1.14-.94 2.4-2.4 2.53-3.73.34-3.66.12-7.38.12-11.3-.69.19-1.23.34-1.76.52z" fill="#fff"></path><path d="m113.13 64.51-.13.06q-17.84 6-35.71 12a2.14 2.14 0 0 1 -1.32.07c-5.07-1.67-10.13-3.37-15.4-5.14l-9-3c-2.57 2.1-3.26 5.39-3.57 8.79 0 .4.37.91.68 1.28a4.18 4.18 0 0 1 .25 5.26 5.36 5.36 0 0 0 -.49 2.72c0 2.78.34 5.55.22 8.32a8.43 8.43 0 0 1 -3.71 6.94 3.75 3.75 0 0 1 -2.71.66 22.57 22.57 0 0 1 -3-1.24 2.25 2.25 0 0 1 -.74-3.46c.29-.35.57-.68.86-1a20 20 0 0 0 4.69-10.64 2.37 2.37 0 0 0 -.62-1.72c-1.86-2-1.92-4-.13-6a3.84 3.84 0 0 0 1-1.9 20.52 20.52 0 0 1 3.23-9.33c-2.11-.72-4.11-1.39-6.1-2.08a7.72 7.72 0 0 1 -1.93-.74c-.51-.35-1.25-1-1.15-1.48a1.71 1.71 0 0 1 1.13-1.26q3.8-1.48 7.67-2.77c9.16-3.07 18.31-6.13 27.5-9.11a5.46 5.46 0 0 1 3.15-.09q16.82 5.48 33.58 11.14a10.92 10.92 0 0 1 1.64.73 1.69 1.69 0 0 1 .11 2.99z" fill="#fff"></path></g></g></g></svg>