<!-- icon666.com - MILLIONS vector ICONS FREE --><svg  width="20" height="20" clip-rule="evenodd" fill-rule="evenodd" image-rendering="optimizeQuality" shape-rendering="geometricPrecision" text-rendering="geometricPrecision" viewBox="0 0 254000 254000" xmlns="http://www.w3.org/2000/svg"><g id="图层_x0020_1"><path d="m127000 0c70129 0 127000 56871 127000 127000s-56871 127000-127000 127000-127000-56871-127000-127000 56871-127000 127000-127000zm82345 121135-63163-36468-63163-36467c-2154-1244-4620-1244-6774 0-2154 1243-3386 3379-3386 5866v72934 72935c0 2487 1233 4622 3387 5866 2154 1243 4619 1243 6773 0l63163-36468 63163-36467c2153-1243 3386-3378 3386-5865s-1232-4622-3386-5866z" fill="rgb(0,0,0)" style="fill: rgb(255, 255, 255);"></path></g></svg>