<!-- icon666.com - MILLIONS vector ICONS FREE --><svg height='40px' width='40px' version="1.1" id="Layer_1" xmlns="http://www.w3.org/2000/svg" xmlns:xlink="http://www.w3.org/1999/xlink" x="0px" y="0px" viewBox="0 0 512 512" style="enable-background:new 0 0 512 512;" xml:space="preserve"><circle style="fill: rgb(62, 147, 31);" cx="255.996" cy="256" r="255.996" fill="#FF7A53"></circle><path style="fill: rgb(48, 149, 35);" d="M512,256.003c0-13.222-1.003-26.211-2.937-38.893L405.235,113.283L256.001,56.432l-149.235,56.851 c0,0,0,100.674,0,139.76c0,28.346-1.537,91.26,55.658,146.06l112.221,112.221C407.324,501.773,512,391.118,512,256.003z" fill="#FF4F19"></path><path style="" d="M405.235,253.043c0-39.086,0-139.76,0-139.76L255.999,56.43l-149.235,56.852c0,0,0,100.674,0,139.76 s-2.961,143.905,149.235,202.534C408.196,396.948,405.235,292.128,405.235,253.043z" fill="#FFFFFF"></path><path style="" d="M405.235,253.043c0-39.085,0-139.76,0-139.76L255.999,56.43v399.145 C408.196,396.948,405.235,292.128,405.235,253.043z" fill="#D8D8DA"></path><path style="fill: rgb(48, 147, 6);" d="M379.168,258.118c0-32.259,0-124.463,0-124.463L256.001,86.733l-123.169,46.922 c0,0,0,92.205,0,124.463s-2.444,118.77,123.169,167.157C381.612,376.887,379.168,290.376,379.168,258.118z" fill="#00C379"></path><path style="fill: rgb(27, 155, 18);" d="M379.168,258.118c0-32.259,0-124.463,0-124.463L256.001,86.733v338.542 C381.612,376.887,379.168,290.376,379.168,258.118z" fill="#008C49"></path><path style="" d="M256.001,398.103l-2.188-0.843c-100.011-38.526-99.917-108.278-99.882-134.536l0.001-1.405V152.797 l102.068-38.883l102.068,38.883l0.001,109.926c0.036,26.258,0.129,96.011-99.881,134.536L256.001,398.103z M166.104,161.186 l-0.001,101.553c-0.036,26.017-0.11,86.667,89.898,122.308c90.007-35.641,89.933-96.291,89.898-122.308l-0.001-1.421V161.186 l-89.897-34.246L166.104,161.186z" fill="#FFFFFF"></path><path style="" d="M358.07,262.724l-0.001-109.926l-102.068-38.883v13.026l89.897,34.246v100.132l0.001,1.421 c0.036,26.017,0.11,86.667-89.898,122.308v13.056l2.188-0.843C358.198,358.734,358.104,288.982,358.07,262.724z" fill="#D8D8DA"></path></svg>